<svg xmlns="http://www.w3.org/2000/svg" width="1920" viewBox="0 0 1440 810" height="1080" version="1.0"><defs><clipPath id="a"><path d="M79.473 109.496H1372v591.332H79.473Zm0 0"/></clipPath><clipPath id="b"><path d="M100.008 109.496h1251.101a20.534 20.534 0 0 1 20.532 20.535v550.266a20.531 20.531 0 0 1-20.532 20.531H100.008a20.534 20.534 0 0 1-14.52-6.015 20.518 20.518 0 0 1-6.015-14.516V130.03a20.534 20.534 0 0 1 20.535-20.535"/></clipPath></defs><path fill="#fff" d="M-144-81h1728v972H-144z"/><path fill="#fff" d="M-144-81h1728v972H-144z"/><g clip-path="url(#a)"><g clip-path="url(#b)"><path d="M79.473 109.496h1293.539v591.332H79.472Zm0 0"/></g></g><path d="m214.715 312.75-.36 60.968c0 1.945-.698 2.922-2.093 2.922-.469 0-1.23-.2-2.281-.594a8.058 8.058 0 0 1-2.813-1.75c-.812-.781-1.218-1.758-1.218-2.922 0-.855.035-1.554.109-2.094.469-3.894.703-7.207.703-9.937l.594-42.047v-1.75c0-3.894-.469-7.281-1.406-10.156-.243-.625-.36-1.172-.36-1.64 0-.54.313-.813.938-.813 1.164 0 4.203 1.21 9.11 3.625l27.108-1.532.22-12.25-29.423 1.75-4.437.235c-1.563 0-2.89-.524-3.985-1.578-1.085-1.051-1.859-2.395-2.328-4.032-.074-.156-.109-.39-.109-.703 0-.468.227-.703.687-.703.313 0 .547.043.704.125 1.25.305 2.691.453 4.328.453l3.156-.11 31.406-1.874.125-8.875c0-2.645-.469-4.941-1.406-6.89-.074-.157-.11-.391-.11-.704 0-.383.27-.578.813-.578.383 0 1.258.156 2.625.469a12.03 12.03 0 0 1 3.86 1.64c1.207.774 1.812 1.782 1.812 3.032l-.36 11.562 27.797-1.64c2.258-.07 4.286-.422 6.079-1.047.625-.227 1.207-.344 1.75-.344.937 0 1.89.336 2.859 1a9.765 9.765 0 0 1 2.453 2.328c.664.899 1 1.574 1 2.031 0 .47-.258.844-.766 1.125-.5.274-1.18.446-2.03.516l-39.376 2.344-.344 12.375 32.813-1.75h1.406c1.563 0 2.848.414 3.86 1.234 1.007.813 1.515 1.688 1.515 2.625 0 .387-.12.793-.36 1.219-.23.43-.343.762-.343 1l-.11 56.062.11 3.97c0 2.257-.625 3.987-1.875 5.187-1.242 1.207-2.484 1.812-3.734 1.812-1.399 0-4.043-1.09-7.938-3.266-3.898-2.18-7.48-4.554-10.75-7.125-3.273-2.57-4.906-4.441-4.906-5.609 0-.539.39-.812 1.172-.812.625 0 1.676.312 3.156.937 5.844 2.649 11.567 4.746 17.172 6.297v-57.219Zm1.985 32.109c0-.614.347-.922 1.046-.922.313 0 .547.039.704.11 1.789.468 3.695.702 5.718.702h1.407l17.046-.812v-8.532l-12.14.47-3.281.109c-1.243 0-2.094-.27-2.563-.813-.312-.312-.508-.547-.578-.703-1.094-1.094-1.84-2.223-2.234-3.39a1.34 1.34 0 0 1-.11-.579c0-.383.27-.578.813-.578h.234c2.102.387 3.938.578 5.5.578h.813l17.875-.812c3.656-4.594 6.086-8.114 7.296-10.563 1.208-2.457 1.97-4.547 2.282-6.265.226-1.008.613-1.516 1.156-1.516.937 0 2.18.703 3.734 2.11 1.563 1.398 2.344 2.64 2.344 3.734 0 .78-1.11 2.539-3.328 5.265-2.219 2.72-4.262 5.012-6.125 6.875l6.656-.343c1.938-.082 3.57-.36 4.906-.829.458-.144.805-.218 1.047-.218.852 0 1.688.336 2.5 1 .82.656 1.504 1.375 2.047 2.156.551.773.828 1.352.828 1.734 0 .47-.199.825-.593 1.063a2.45 2.45 0 0 1-1.282.344l-21.14.812.125 8.656L264.34 343c2.258-.082 4.285-.43 6.078-1.047.625-.238 1.207-.36 1.75-.36 1.25 0 2.594.626 4.032 1.876 1.437 1.242 2.156 2.406 2.156 3.5 0 1.012-.899 1.594-2.688 1.75l-26.156 1.047.234 17.406c0 .625-.18 1.149-.53 1.578-.345.426-.829.64-1.454.64-1.012 0-2.277-.507-3.797-1.515-1.523-1.012-2.281-2.062-2.281-3.156l.125-.703c.54-3.113.812-6.227.812-9.344V350l-15.656.703-3.375.125c-1.562 0-2.851-.425-3.86-1.28-1.01-.864-1.773-1.782-2.28-2.75-.5-.977-.75-1.626-.75-1.938Zm11.093-27.907c0-.539.383-1.28 1.157-2.218.78-.938 1.597-1.407 2.453-1.407.625 0 1.867.883 3.734 2.64a71.062 71.062 0 0 1 5.375 5.61c1.719 1.98 2.578 3.203 2.578 3.672 0 .774-.625 1.59-1.875 2.453-1.242.856-2.058 1.282-2.453 1.282-.46 0-.844-.133-1.156-.407-.313-.28-.703-.77-1.172-1.468-1.95-2.645-4.559-5.563-7.828-8.75-.543-.551-.813-1.02-.813-1.407Zm139.924-2.578c5.52 11.219 12.485 21.367 20.89 30.438 8.415 9.062 17.724 16.047 27.923 20.953.781.394 1.328.726 1.64 1 .313.27.47.562.47.875 0 .625-.938 1.71-2.813 3.265-1.868 1.563-3.266 2.344-4.203 2.344-1.168 0-4.688-2.086-10.563-6.25-5.875-4.164-12.418-10.316-19.625-18.453-7.2-8.133-13.605-18.082-19.219-29.844-3.031 12.532-8.265 22.907-15.703 31.125-7.437 8.22-14.777 14.293-22.015 18.22-7.243 3.937-11.72 5.905-13.438 5.905-.93 0-1.39-.312-1.39-.937 0-.856.851-1.793 2.562-2.813 22.969-13.695 37.101-32.07 42.406-55.125l-26.172 1.407-3.625.109c-1.781 0-3.14-.461-4.078-1.39-.937-.938-1.875-2.614-2.812-5.032-.075-.156-.11-.39-.11-.703 0-.457.27-.688.813-.688l.469.11c1.562.312 3.316.469 5.265.469h1.516l30.125-1.75c1.32-7.864 1.984-16.66 1.984-26.391 0-1.945-.586-3.895-1.75-5.844-.312-.55-.469-1.02-.469-1.406 0-.54.391-.813 1.172-.813.54 0 1.586.18 3.14.532a13.61 13.61 0 0 1 4.438 1.86c1.407.898 2.11 2.085 2.11 3.562v.343c-.387 11.22-1.125 20.45-2.219 27.688l34-1.985c1.79-.156 3.305-.503 4.547-1.046.312-.157.66-.235 1.047-.235.937 0 2.3.742 4.094 2.219 1.789 1.48 2.687 2.762 2.687 3.844 0 .625-.312 1.136-.937 1.53-.625.388-1.368.618-2.22.688Zm128.705-4.437c-.78.086-1.835.125-3.156.125-1.867 0-3.11-.313-3.734-.938-1.867-2.101-2.875-4.086-3.031-5.953 0-.394.156-.594.468-.594.227 0 .422.043.578.125a16.19 16.19 0 0 0 5.141.813h1.047l20.094-1.047-.11-20.797c0-2.25-.668-4.27-2-6.062-.617-.707-.922-1.332-.922-1.875 0-.54.426-.813 1.282-.813 1.633 0 3.562.45 5.78 1.344 2.22.898 3.33 2.32 3.33 4.265l.108 23.47 2.688-.11c2.102-.156 3.816-.469 5.14-.938.47-.238.895-.36 1.282-.36.781 0 1.656.392 2.625 1.173.976.781 1.836 1.64 2.578 2.578.738.93 1.11 1.625 1.11 2.094 0 .468-.235.804-.704 1-.469.187-1.133.324-1.984.406l-12.735.703.36 56.766c0 .695.035 1.394.11 2.093.081.696.124 1.32.124 1.875 0 1.395-.37 2.563-1.11 3.5-.741.938-1.558 1.618-2.452 2.047-.899.426-1.543.64-1.938.64-1.324 0-3.719-1.108-7.187-3.327a88.024 88.024 0 0 1-9.75-7.235c-3.032-2.613-4.547-4.347-4.547-5.203 0-.468.347-.703 1.047-.703.78 0 1.91.352 3.39 1.047 5.914 2.887 10.86 4.914 14.828 6.078l-.343-57.11Zm-61.546 60.86c0-.544.035-.97.109-1.282.55-2.961.828-6.035.828-9.235l.922-67.734v-3.156c0-3.27-.309-5.766-.922-7.485-.555-1.394-.828-2.289-.828-2.687 0-.613.312-.922.937-.922 1.008 0 4.008 1.047 9 3.14l15.532-1.39 1.64-.125c.926 0 1.993.371 3.203 1.11 1.207.742 1.813 1.578 1.813 2.515 0 .469-.234.996-.703 1.578-.469.586-.82 1.031-1.047 1.344a147.687 147.687 0 0 1-10.156 16.469c-.157.312-.235.547-.235.703 0 .469.114.82.344 1.047 2.176 2.336 3.867 4.36 5.078 6.078 1.207 1.71 2.18 3.812 2.922 6.312.738 2.493 1.11 5.485 1.11 8.985 0 4.125-.665 6.793-1.985 8-1.324 1.21-2.57 1.812-3.734 1.812-1.407 0-3.297-.851-5.672-2.562a39.521 39.521 0 0 1-6.375-5.735c-1.867-2.101-2.797-3.617-2.797-4.547 0-.468.273-.703.828-.703.695 0 1.594.387 2.688 1.157 2.875 1.793 5.832 3.199 8.875 4.218.156.075.347.11.578.11.238 0 .394-.313.468-.938.082-.625.125-1.285.125-1.984 0-4.051-.605-7.301-1.812-9.75-1.211-2.445-3.023-5.078-5.438-7.89-1.011-1.24-1.515-2.407-1.515-3.5 0-1.009.39-2.098 1.172-3.266 1.707-2.57 3.379-5.414 5.015-8.532 1.633-3.113 2.61-4.984 2.922-5.61l-13.906 1.173-1.156 84.687c0 1.008-.18 1.82-.532 2.438-.355.625-.882.937-1.578.937-1.011 0-2.218-.547-3.625-1.64-1.398-1.086-2.093-2.133-2.093-3.14Zm30.953-42.985c0-.625.27-1.442.812-2.453a153.49 153.49 0 0 0 9.453-19.563c2.657-6.656 4.66-12.473 6.016-17.453 1.363-4.988 2.047-8.066 2.047-9.234 0-.47-.078-1.25-.235-2.344l-.109-.578c0-.782.39-1.172 1.172-1.172.695 0 1.664.277 2.906.828 1.25.543 2.344 1.227 3.281 2.047.938.812 1.407 1.648 1.407 2.5 0 1.25-1.04 4.508-3.11 9.765-2.062 5.25-4.183 10.133-6.36 14.641l.58 66.578c0 1.563-.665 2.344-1.985 2.344-.387 0-1.07-.18-2.047-.531a7.612 7.612 0 0 1-2.625-1.64c-.774-.743-1.156-1.653-1.156-2.735 0-.555.035-.98.109-1.282.469-2.03.703-4.289.703-6.78v-44.61a117.234 117.234 0 0 1-5.547 8.344c-2.062 2.843-3.601 4.265-4.61 4.265-.468 0-.702-.312-.702-.937Zm26.86-8.297c0-.77.66-1.547 1.983-2.328.782-.551 1.485-.828 2.11-.828.695 0 1.36.511 1.984 1.53 2.25 3.345 4.563 7.079 6.938 11.204 2.375 4.125 3.562 6.734 3.562 7.828 0 .938-.469 1.742-1.406 2.406-.93.657-2.09 1.18-3.484 1.563-.868 0-1.61-.695-2.235-2.094-2.562-6.383-5.523-12.305-8.875-17.766-.387-.539-.578-1.046-.578-1.515Zm108.032 56.297c0 1.945-.777 2.922-2.328 2.922-1.168 0-2.453-.414-3.86-1.235-1.398-.812-2.093-1.996-2.093-3.547l.11-.828c.394-2.492.593-4.902.593-7.234l.11-30.14-25.47 1.062.36 3.5v.343c0 1.48-.742 2.22-2.219 2.22-1.25 0-2.539-.384-3.859-1.157-1.324-.781-1.984-1.91-1.984-3.39v-.938c.156-1.707.234-2.836.234-3.39 0-.782-.078-1.868-.234-3.266l-2.094-25.47c-.242-2.562-.906-4.737-2-6.53-.617-1.008-.922-1.75-.922-2.22 0-.624.426-.937 1.281-.937 1.395 0 4.118.82 8.172 2.453l28.969-1.75.11-20.093c0-1.79-.43-3.461-1.282-5.016-.312-.55-.469-1.062-.469-1.531 0-.613.504-.922 1.516-.922.469 0 1.344.137 2.625.406 1.29.274 2.5.762 3.625 1.469 1.133.7 1.703 1.633 1.703 2.797l-.125 22.422 31.547-1.875c.695-.07 1.55-.11 2.562-.11 1.407 0 2.536.313 3.391.938.852.617 1.453 1.293 1.797 2.031.352.742.531 1.309.531 1.703 0 .469-.18 1.055-.531 1.75-.344.7-.516 1.203-.516 1.516l-3.265 25.234c2.176 2.492 3.265 4.242 3.265 5.25 0 .625-.312 1.04-.937 1.235-.625.187-1.637.324-3.031.406l-35.047 1.515Zm-33.39-45.657 26.031-1.171.125-25.813-28.375 1.625Zm62.125-2.812 2.812-26.39-31.078 1.75-.234 25.921Zm64.471 30.141v.343c0 .7-.18 1.246-.532 1.64-.343.388-.828.58-1.453.58-.93 0-2.117-.349-3.562-1.048-1.438-.695-2.157-1.785-2.157-3.265l.125-.829c.227-1.55.344-2.988.344-4.312l-.11-2.219-1.405-26.64c-.086-2.25-.434-4-1.047-5.25-.399-.938-.594-1.563-.594-1.875 0-.614.426-.922 1.281-.922 1.25 0 3.742.664 7.485 1.984l48.109-2.453h1.297c1.238 0 2.406.39 3.5 1.172 1.094.773 1.64 1.586 1.64 2.437 0 .399-.101.809-.296 1.235-.2.43-.336.758-.407.984l-2.218 28.39c1.945 1.95 2.921 3.352 2.921 4.204 0 .543-.257.89-.765 1.047-.512.156-1.309.277-2.39.36l-49.876 1.983Zm-27.672-58.282c0-.468.191-.703.578-.703l.469.11c1.164.312 2.53.468 4.093.468h1.516l17.984-1.28c.313 0 .895-.02 1.75-.063a7.684 7.684 0 0 0 2.453-.516c.47-.156.782-.234.938-.234.781 0 1.598.336 2.453 1a9.263 9.263 0 0 1 2.094 2.218c.55.813.828 1.375.828 1.688 0 .699-.82 1.125-2.453 1.281l-23.719 2.453c-.7.074-1.633.11-2.797.11-1.48 0-2.453-.192-2.922-.579-2.18-2.175-3.265-4.16-3.265-5.953Zm3.968-18.453c0-.469.192-.703.579-.703l.468.11c1.164.312 2.532.468 4.094.468h1.516l13.312-.578c1.25-.082 2.649-.437 4.203-1.062.469-.145.782-.22.938-.22.781 0 1.578.391 2.39 1.173.82.773 1.524 1.625 2.11 2.562.582.93.875 1.547.875 1.86 0 .71-.82 1.14-2.453 1.296l-19.032 1.157c-.71.086-1.648.125-2.812.125-1.48 0-2.453-.196-2.922-.594a26.962 26.962 0 0 1-2.281-2.563c-.656-.851-.985-1.863-.985-3.03Zm.579 94.719c0-.781.78-1.445 2.343-1.984 11.29-4.211 19.774-8.489 25.453-12.844 1.407-1.094 2.344-2.422 2.813-3.985.226-.613.578-.921 1.047-.921.937 0 2.16 1.011 3.672 3.03 1.52 2.024 2.28 3.618 2.28 4.782 0 .781-.429 1.371-1.28 1.766-11.137 5.601-22.309 9.258-33.516 10.968a4.136 4.136 0 0 1-1.047.125c-1.18 0-1.765-.312-1.765-.937Zm21.734-48.36 45.656-2.218.36-6.078-46.25 2.218Zm.578 10.985 44.39-2.11.344-6.062-45.078 2.219Zm.469 11.328 43.219-1.75.343-6.312-43.797 1.875Zm1.64-35.86c0-.312.192-.64.579-.984.382-.351.93-.648 1.64-.89 5.363-1.782 10.578-4.344 15.64-7.688 5.063-3.351 8.645-7.91 10.75-13.672.227-.707.345-1.297.345-1.765 0-.383-.075-.97-.22-1.75l-.124-.578c0-.625.39-.938 1.172-.938 1.082 0 2.52.434 4.312 1.297 1.79.855 2.688 1.789 2.688 2.797 0 .469-.118.933-.344 1.39l-1.281 2.922c4.82 3.825 9.922 6.922 15.297 9.297 5.375 2.375 11.601 4.34 18.687 5.89.852.243 1.453.438 1.797.595.351.148.531.418.531.812 0 .625-.64 1.64-1.922 3.047-1.281 1.398-2.355 2.094-3.218 2.094-.387 0-.657-.04-.813-.125-12.773-3.657-23.867-9.258-33.281-16.813-2.73 3.899-6.235 7.031-10.516 9.406-4.281 2.375-8.312 4.07-12.094 5.079-3.773 1.011-6.359 1.515-7.765 1.515-.625 0-1.094-.094-1.406-.281-.305-.195-.454-.414-.454-.656Zm6.766-16.812c0-.625.547-1.597 1.64-2.922a73.802 73.802 0 0 0 8.235-12.203c2.375-4.406 3.719-8.281 4.031-11.625.157-.937.582-1.406 1.282-1.406.851 0 1.804.371 2.859 1.11a12.84 12.84 0 0 1 2.687 2.515c.739.937 1.11 1.602 1.11 1.984 0 .23-.371.97-1.11 2.22-.742 1.25-1.539 2.304-2.39 3.155l30.125-2.343a25.05 25.05 0 0 1 2.453-.11c1.164 0 2.297.43 3.39 1.281 1.094.856 1.641 1.793 1.641 2.813 0 .855-.277 1.539-.828 2.047-.543.5-.852.789-.922.86-2.805 3.198-5.61 6.007-8.422 8.421-2.804 2.406-4.824 3.61-6.062 3.61-.469 0-.703-.235-.703-.704 0-.613.504-1.582 1.515-2.906a52.15 52.15 0 0 0 6.078-9.469l-31.89 2.11c-2.805 3.586-5.606 6.484-8.406 8.703-2.805 2.219-4.711 3.328-5.72 3.328-.398 0-.593-.156-.593-.469Zm21.14 63.656c0-.625.27-1.539.813-2.75.55-1.207 1.297-1.812 2.235-1.812 1.164 0 4.57 1.187 10.218 3.562a137.546 137.546 0 0 1 16.407 8.235c.937.539 1.617 1.023 2.046 1.453.426.437.641 1.004.641 1.703 0 .781-.312 1.867-.937 3.266-.625 1.406-1.446 2.11-2.454 2.11-.625 0-1.445-.313-2.453-.938-4.281-2.649-8.195-4.887-11.734-6.72-3.543-1.835-7.61-3.679-12.203-5.546-1.719-.695-2.578-1.55-2.578-2.563Zm146.941-37.843c0 21.718 2.331 36.12 7 43.203.155.238.312.36.468.36.539 0 1.863-6.813 3.969-20.438.468-3.04 1.093-4.563 1.875-4.563.312 0 .625.606.937 1.813.313 1.21.469 3.918.469 8.125 0 5.918-.469 11.636-1.406 17.156-.7 4.594-2.336 6.89-4.907 6.89-.937 0-1.949-.308-3.03-.921-4.212-2.418-7.388-7.594-9.532-15.532-2.137-7.945-3.203-20.21-3.203-36.796v-3.625c0-7.864.191-18.532.578-32l-23.125 1.515c2.414.781 3.625 1.95 3.625 3.5l-.234 25.703 5.375-.468a18.225 18.225 0 0 0 5.375-1.282c.457-.238.921-.36 1.39-.36.938 0 2.102.65 3.5 1.938 1.406 1.282 2.11 2.391 2.11 3.329 0 .855-.665 1.359-1.985 1.515l-15.765 1.406-.47 48c0 .852-.12 1.532-.359 2.032-.23.508-.656.765-1.28.765-.313-.074-.954-.289-1.923-.64-.968-.356-1.886-.903-2.75-1.64-.855-.743-1.28-1.653-1.28-2.735 0-.555.038-.98.124-1.282.457-2.105.688-4.441.688-7.015l.468-36.906-9.11.812c-.542.086-1.32.125-2.327.125-1.563 0-2.617-.273-3.156-.828-.782-.695-1.508-1.61-2.172-2.734-.657-1.133-.985-1.973-.985-2.516 0-.383.196-.578.594-.578h.344c1.476.312 3.07.469 4.781.469 1.094 0 1.91-.04 2.453-.125l9.578-.813.235-22.89c0-1.25-.059-2.243-.172-2.985-.117-.738-.367-1.535-.75-2.39-.156-.239-.313-.586-.469-1.047l-5.031.343c-.625.075-1.48.11-2.563.11-1.949 0-3.508-.367-4.672-1.11-1.168-.738-2.105-2.351-2.812-4.843-.074-.157-.11-.426-.11-.813 0-.312.192-.469.579-.469l.703.11c2.332.554 4.047.828 5.14.828l1.75-.125 36.204-2.219 1.296-.11c1.551 0 2.813.509 3.782 1.516.976 1.012 1.468 1.985 1.468 2.922 0 .469-.078 1.016-.234 1.64a23 23 0 0 0-.344 1.516c-.468 8.875-.703 19.153-.703 30.829Zm-93.438-28.032c0-.468.234-.703.703-.703.07 0 .344.078.812.235.938.312 2.024.468 3.266.468l2.453-.125 28.625-1.625a19.777 19.777 0 0 0 4.781-1.062c.47-.156.817-.234 1.047-.234 1.008 0 2.254.605 3.735 1.812 1.488 1.211 2.234 2.281 2.234 3.219 0 .543-.219.969-.656 1.281-.43.313-.993.508-1.688.578l-35.734 2.344c-.938.074-2.07.11-3.39.11-1.013 0-2.028-.305-3.048-.923-1.011-.625-2.023-2.109-3.03-4.453-.075-.226-.11-.535-.11-.922Zm7.468 41.688c0-.469.348-.703 1.047-.703 1.32 0 4.164.82 8.532 2.453l19.046-1.047 1.157-.11c1.093 0 2.144.509 3.156 1.516 1.008 1.012 1.516 2.063 1.516 3.157 0 .386-.059.757-.172 1.109-.118.344-.215.637-.297.875L816.1 358.53c1.79 2.336 2.688 3.93 2.688 4.782 0 .554-.234.886-.703 1-.461.117-1.235.215-2.328.297l-20.563.812.235 2.344v.344c0 1.707-.7 2.562-2.094 2.562-1.094 0-2.305-.414-3.625-1.234-1.324-.813-1.985-1.918-1.985-3.313v-.703c0-.695.036-1.394.11-2.094a18.3 18.3 0 0 0 .125-2.11v-1.515l-1.172-15.078c-.23-2.644-.777-4.707-1.64-6.187-.7-1.082-1.048-1.82-1.048-2.22Zm.938-27.328c0-.469.191-.703.578-.703l.469.125c.851.312 2.062.468 3.625.468l1.875-.125 16-.937c1.238-.07 2.597-.379 4.078-.922.469-.156.781-.234.937-.234 1.008 0 2.176.664 3.5 1.984 1.32 1.324 1.985 2.336 1.985 3.031 0 1.094-.82 1.72-2.453 1.875l-21.72 1.39c-.624.087-1.48.126-2.562.126-1.562 0-2.578-.234-3.046-.703-1.555-1.25-2.606-2.848-3.157-4.797-.074-.145-.11-.336-.11-.578Zm.11 13.672c0-.395.195-.594.593-.594l.578.125c1.25.312 2.649.469 4.203.469h1.282l15.421-.828c1.477-.157 2.844-.426 4.094-.813.469-.156.817-.234 1.047-.234.938 0 2.082.625 3.438 1.875 1.363 1.242 2.046 2.328 2.046 3.265 0 .47-.234.86-.703 1.172-.46.313-1.078.508-1.86.578l-21.14 1.172h-3.39c-1.086-.156-1.86-.351-2.328-.594a25.662 25.662 0 0 1-2.297-2.562c-.657-.852-.985-1.863-.985-3.031Zm3.624-44.5c0-.551.27-1.367.813-2.453.55-1.094 1.332-1.641 2.344-1.641.625 0 2.722.742 6.296 2.219 3.582 1.48 7.399 3.308 11.454 5.484.851.469 1.472.902 1.859 1.297.394.387.594.852.594 1.39 0 .938-.352 2.032-1.047 3.282-.7 1.242-1.559 1.86-2.578 1.86-.543 0-1.36-.348-2.453-1.048a111.442 111.442 0 0 0-15.063-8.062c-1.48-.625-2.219-1.399-2.219-2.328Zm5.953 81.047 14.61-.47 1.39-15.171-17.046.922Zm164.346-35.157c-.398 4.282-.867 8.215-1.406 11.797-1.324 7.48-3.543 14.008-6.656 19.578-3.117 5.563-6.23 9.84-9.344 12.828-3.117 3-5.18 4.5-6.188 4.5-.468 0-.703-.23-.703-.687 0-.711.391-1.606 1.172-2.688 4.281-6 7.531-11.664 9.75-17 2.219-5.332 3.711-10.082 4.485-14.25.78-4.164 1.328-8.703 1.64-13.609l-5.375.234c-2.804.243-4.32.36-4.547.36-3.043 0-5.183-1.988-6.422-5.969-.085-.156-.125-.383-.125-.687 0-.47.274-.704.829-.704.3 0 .57.04.812.11 1.32.312 2.836.469 4.547.469l1.875-.11 8.766-.469c.156-3.351.234-8.53.234-15.53 0-5.614-.043-9.704-.125-12.266l-1.75.109c-2.18.156-3.7.234-4.563.234-1.71 0-2.875-.312-3.5-.937a12.688 12.688 0 0 1-1.75-2.219c-.543-.851-.933-1.672-1.171-2.453-.075-.156-.11-.39-.11-.703 0-.457.27-.688.813-.688.312 0 .586.04.828.11 1.164.312 2.644.468 4.437.468l1.985-.125 36.547-2.218c2.187-.145 4.175-.492 5.968-1.047.157-.07.461-.11.922-.11 1.164 0 2.625.665 4.375 1.985 1.758 1.324 2.64 2.453 2.64 3.39 0 .461-.198.844-.593 1.157-.387.312-.93.511-1.625.593l-13.312.704v27.796l6.656-.359c1.707-.156 3.691-.547 5.953-1.172.156-.07.426-.11.812-.11.47 0 1.305.294 2.516.876a13.03 13.03 0 0 1 3.203 2.172c.938.855 1.406 1.71 1.406 2.562 0 1.086-.742 1.703-2.218 1.86l-18.328.937-.125 50.219c0 2.031-.7 3.047-2.094 3.047-1.25 0-2.578-.492-3.985-1.47-1.398-.968-2.093-2.077-2.093-3.327l.11-1.281c.468-3.743.702-6.813.702-9.22l.125-37.5Zm-65.875 18.922c0-.695.39-1.707 1.172-3.031 7.707-13.156 14.129-28.613 19.266-46.375l-7.828.469-3.266.234c-1.406 0-2.813-.695-4.219-2.094-1.398-1.406-2.094-2.77-2.094-4.093 0-.47.235-.704.704-.704.312 0 .546.043.703.125 1.32.313 2.836.47 4.547.47h1.406l24.875-1.641c1.633-.157 3.078-.426 4.328-.813.156-.082.426-.125.812-.125 1.094 0 2.336.625 3.735 1.875 1.406 1.242 2.11 2.293 2.11 3.156 0 .93-.821 1.47-2.454 1.625l-15.531.938c-2.961 9.344-5.688 16.82-8.188 22.422l.47.234 14.25-.812h1.64c1.32 0 2.445.39 3.375 1.171.937.774 1.406 1.668 1.406 2.688 0 .387-.102.812-.297 1.281-.187.469-.32.856-.39 1.156l-1.766 25.704c1.789 2.18 2.687 3.734 2.687 4.671 0 .543-.234.875-.703 1-.46.118-1.273.211-2.437.282l-16.703.593.109 4.438v.344c0 1.718-.7 2.578-2.094 2.578-1.023 0-2.215-.445-3.578-1.344-1.355-.894-2.031-2.004-2.031-3.328 0-.469.035-.82.11-1.063.394-2.101.593-3.894.593-5.375v-1.046l-.703-21.25c-2.418 4.199-5.047 7.996-7.89 11.39-2.845 3.387-4.696 5.078-5.548 5.078-.386 0-.578-.273-.578-.828Zm21.375 4.438 10.86-.47 1.046-25.92-12.734.577Zm60.5-30.953.11-27.797-15.407.828.11 12.14c0 5.293-.117 10.512-.344 15.657Zm101.502-7.704c0 1.325.305 2.297.922 2.922.625.625 1.832.977 3.625 1.047l2.922.125c2.02 0 4.566-.133 7.64-.406 3.083-.281 5.712-.926 7.891-1.938a2.08 2.08 0 0 1 .938-.234c.383 0 1.047.277 1.984.828a11.167 11.167 0 0 1 2.516 1.985c.738.773 1.11 1.546 1.11 2.328 0 .937-.743 1.523-2.22 1.75-8.023 1.25-14.836 1.875-20.437 1.875l-3.75-.125c-3.656-.145-6.227-.899-7.703-2.266-1.48-1.363-2.219-3.68-2.219-6.953v-.469l.11-9.219c0-1.093-.06-1.988-.173-2.687-.117-.707-.406-1.41-.875-2.11-.386-.624-.578-1.093-.578-1.406 0-.539.426-.812 1.282-.812 1.32 0 2.914.414 4.78 1.234 1.876.813 2.813 1.688 2.813 2.625v.235l-.578 11.093Zm-60.734 65.172c0-.78 1.164-1.715 3.5-2.797 9.5-4.054 16.992-8.957 22.484-14.718 5.489-5.758 9.36-11.953 11.61-18.578l-17.86 1.171c-2.031.157-3.32.235-3.86.235-1.792 0-3.116-.524-3.968-1.578a20.818 20.818 0 0 1-2.219-3.328l-.234-1.047c0-.47.27-.703.812-.703.313 0 .586.043.829.125.695.148 1.898.218 3.609.218 2.031 0 3.36-.035 3.984-.11l20.782-1.515c.695-3.351 1.125-7.093 1.28-11.218 0-2.258-.35-3.973-1.046-5.141-.23-.469-.344-.852-.344-1.156 0-.707.54-1.063 1.625-1.063.469 0 1.383.156 2.75.469 1.364.312 2.61.84 3.735 1.578 1.132.742 1.703 1.656 1.703 2.75v.234c0 3.43-.59 7.79-1.766 13.079l22.672-1.641 1.39-.11c1.094 0 2.024.274 2.797.813.782.543 1.407 1.149 1.875 1.813.47.668.704 1.152.704 1.453 0 .398-.157.906-.47 1.53-.312.618-.468 1.08-.468 1.392l-3.734 22.421c-.157 1.407-.235 2.305-.235 2.688 0 .867.172 1.59.516 2.172.352.586 1.25 1.074 2.687 1.469 1.446.386 3.727.578 6.844.578 3.739 0 6.328-.332 7.766-1 1.437-.664 2.547-2.164 3.328-4.5.781-2.332 1.79-6.848 3.031-13.547.469-2.258 1.094-3.39 1.875-3.39 1.164 0 1.75 3.855 1.75 11.562 0 4.992-.293 8.617-.875 10.875-.586 2.25-2.183 3.976-4.797 5.187-2.605 1.207-6.902 1.813-12.89 1.813-5.844 0-10.133-.684-12.86-2.047-2.718-1.367-4.078-4.031-4.078-8 0-.54.078-1.438.235-2.688l3.843-23.828-22.656 1.531c-1.95 5.918-4.48 11.133-7.594 15.641-3.117 4.524-7.164 8.399-12.14 11.625-4.98 3.227-9.79 5.695-14.422 7.406-4.637 1.72-7.93 2.578-9.875 2.578-1.086 0-1.625-.234-1.625-.703Zm1.75-66.687c0-.54.234-1.203.703-1.985 2.094-3.656 4.035-7.585 5.828-11.796 1.79-4.207 3.192-8.102 4.203-11.688.239-.77.551-1.348.938-1.734.394-.395.898-.594 1.515-.594.47 0 1.051.117 1.75.344 1.02.312 1.723.648 2.11 1 .383.355.578.84.578 1.453 0 .242-.078.746-.235 1.515-.156.47-.312.997-.468 1.579-.149.586-.34 1.23-.578 1.937l34.921-1.984-1.28-1.297a45.792 45.792 0 0 0-4.266-3.969 71.598 71.598 0 0 0-4.094-3.094c-1.281-.894-2.156-1.5-2.625-1.812-1.012-.77-1.516-1.469-1.516-2.094 0-.695.367-1.453 1.11-2.266.738-.82 1.457-1.234 2.156-1.234.625 0 2.281.875 4.969 2.625a79.788 79.788 0 0 1 7.53 5.547c2.345 1.95 3.516 3.309 3.516 4.078 0 .399-.18.906-.53 1.531a8.753 8.753 0 0 1-1.345 1.75l35.86-2.11h.937c1.32 0 2.547.415 3.672 1.235 1.125.813 1.688 1.727 1.688 2.735 0 .554-.274 1.101-.813 1.64-.543.543-.89.97-1.047 1.282-2.73 4.21-5.515 7.812-8.359 10.812-2.844 2.992-4.809 4.484-5.89 4.484-.544 0-.813-.304-.813-.921 0-.864.582-2.266 1.75-4.204 1.945-3.195 3.617-6.664 5.015-10.406l-72.64 4.094c-4.438 11.762-7.438 17.64-9 17.64-.313-.081-.899-.316-1.75-.703a11.734 11.734 0 0 1-2.39-1.468c-.743-.582-1.11-1.223-1.11-1.922Zm6.656 17.406c0-.625.66-1.363 1.984-2.219 3.97-2.488 7.86-5.445 11.672-8.875 3.82-3.425 6.957-6.797 9.407-10.11 2.457-3.312 3.757-6.054 3.906-8.233.156-.782.547-1.172 1.172-1.172 1.093 0 2.492.761 4.203 2.28 1.719 1.524 2.578 2.75 2.578 3.688 0 .543-.156 1.008-.469 1.391-3.742 4.992-7.906 9.277-12.5 12.86-4.594 3.574-8.82 6.32-12.672 8.234-3.855 1.906-6.523 2.86-8 2.86-.855 0-1.28-.235-1.28-.704Zm139.33-35.046c0 .71-.547 1.57-1.64 2.577-1.086 1.012-2.094 1.516-3.032 1.516-.699 0-1.437-.504-2.218-1.516a109.929 109.929 0 0 0-12.375-13.312c-.7-.625-1.047-1.25-1.047-1.875s.426-1.344 1.281-2.156c.852-.82 1.629-1.235 2.328-1.235 1.02 0 3.203 1.578 6.547 4.735 3.352 3.156 6.352 6.136 9 8.937.77.774 1.156 1.547 1.156 2.328Zm-36.078 60.265c0-.852.696-1.942 2.094-3.266 5.758-5.375 11.5-11.953 17.219-19.734 5.726-7.79 10.617-15.578 14.672-23.36l-18.579 2.329c-1.636.242-2.96.359-3.968.359-1.637 0-3.059-.64-4.266-1.922-1.21-1.289-2.121-2.832-2.734-4.625 0-.469.304-.703.922-.703h.593c1.164.242 2.567.36 4.203.36 1.165 0 2.02-.04 2.563-.126l24.422-2.797a17.012 17.012 0 0 1 2.219-.125c1.238 0 2.363.415 3.375 1.235 1.02.812 1.53 1.652 1.53 2.515 0 .618-1.777 3.903-5.327 9.86-3.543 5.96-6.203 10.148-7.985 12.562 3.883 2.407 7.91 5.11 12.078 8.11 4.165 3 6.25 5.086 6.25 6.25 0 1.168-.492 2.297-1.468 3.39-.97 1.094-1.727 1.64-2.266 1.64-.7 0-1.516-.507-2.453-1.53-3.5-3.657-7.547-7.235-12.14-10.735l-.126 42.39c0 1.009-.199 1.806-.593 2.392-.387.582-.93.875-1.625.875-.47 0-1.196-.235-2.172-.704a9.152 9.152 0 0 1-2.563-1.796c-.742-.743-1.11-1.579-1.11-2.516l.126-.813c.226-1.093.422-2.632.578-4.609.156-1.988.234-3.61.234-4.86l.578-29.202c-3.187 3.668-6.46 7.023-9.812 10.062-3.344 3.031-6.262 5.422-8.75 7.172-2.492 1.75-4.125 2.625-4.906 2.625-.543 0-.813-.234-.813-.703Zm37.719 10.172c0-.395.156-.594.469-.594.226 0 .422.043.578.125 2.031.7 4.055 1.047 6.078 1.047l24.062-.813.11-37.265-13.781.593h-1.985c-2.336 0-3.89-.43-4.672-1.296-1.011-1.164-1.73-2.332-2.156-3.5-.43-1.164-.64-1.985-.64-2.454 0-.382.156-.578.468-.578.227 0 .422.04.578.11 2.102.699 3.93 1.047 5.485 1.047h.593l16.11-.813.125-32.11c0-1.331-.102-2.382-.297-3.156-.2-.78-.57-1.64-1.11-2.578a1.401 1.401 0 0 1-.234-.812c0-.383.313-.578.938-.578 1.164 0 2.687.386 4.562 1.156 1.551.555 2.563 1.086 3.031 1.594.47.5.704 1.293.704 2.375l-.125 33.765 12.156-.593c2.406-.157 4.27-.383 5.594-.688l.703-.125c1.093 0 2.414.703 3.968 2.11 1.563 1.398 2.344 2.601 2.344 3.609 0 1.012-.898 1.594-2.687 1.75l-22.078.937-.235 37.266 20.563-.469c1.633 0 3.504-.234 5.61-.703l.702-.11c.54 0 1.336.337 2.39 1a13.216 13.216 0 0 1 2.798 2.329c.82.898 1.234 1.73 1.234 2.5 0 1.094-.937 1.719-2.812 1.875l-59.672 1.515h-2c-2.336 0-3.89-.43-4.672-1.28-.7-.852-1.34-1.962-1.922-3.329-.586-1.363-.875-2.316-.875-2.86Zm-885.515 41.984h66.375v15.25h-25.484v105.094h-15.25V417.17H279.7Zm90.669 120.516h-15.25V401.92h15.578l37.047 85.312V401.92h15.25v120.516h-14.078l-38.547-88.172Zm61.845-120.516h66.375v15.25h-25.484v105.094h-15.25V417.17h-25.64Zm126.528 46.766V417.17h-35.859v90.016h35.86v-29.844h15.265v32.86l-12.25 12.234h-41.89l-12.235-12.235v-96.047l12.234-12.234h41.891l12.25 12.234v34.532Zm75.42-7.547V414.5h-35.86v40.046h39.047l12.078 12.078v43.578l-12.078 12.235h-42.062l-12.235-12.235v-28h15.25v24.985h35.86V469.64h-38.875l-12.235-12.078v-46.094l12.063-12.235h42.234l12.078 12.235v29.672Zm75.262-39.39h15.25v120.687h-15.25V465.28H673.55v57.157H658.3V401.749h15.25v48.281h35.875Zm95.022 108.78h-75.422v-12.562h75.422Zm55.637-61.843V417.17h-35.859v90.016h35.86v-29.844h15.265v32.86l-12.25 12.234h-41.89l-12.235-12.235v-96.047l12.234-12.234H863.1l12.25 12.234v34.532Zm75.419-7.547V414.5h-35.859v40.046h39.047l12.078 12.078v43.578l-12.078 12.235h-42.063l-12.234-12.235v-28h15.25v24.985h35.86V469.64h-38.876l-12.234-12.078v-46.094l12.063-12.235h42.234l12.078 12.235v29.672Zm24.31 66.047h11.734V417.17h-11.734v-15.25h38.875v15.25h-11.89v90.016h11.89v15.25h-38.875Zm114.304 0v15.25h-17.61l-12.234-12.235v-32.015h-21.11v44.078h-15.25V402.093h53.97l12.234 12.234v51.781l-12.235 12.079h-2.343v29Zm-15.25-89.844h-35.703v45.75h35.703Zm75.408 31.344V417.17h-35.86v90.016h35.86v-29.844h15.265v32.86l-12.25 12.234h-41.89l-12.235-12.235v-96.047l12.235-12.234h41.89l12.25 12.234v34.532Zm0 0" fill="#fff"/></svg>