<svg xmlns="http://www.w3.org/2000/svg" xmlns:xlink="http://www.w3.org/1999/xlink" width="135.392" height="93.867" viewBox="0 0 126.93 88"><defs><linearGradient id="b"><stop style="stop-color:#4d4d4d;stop-opacity:1" offset="0"/><stop style="stop-color:#4d4d4d;stop-opacity:0" offset="1"/></linearGradient><linearGradient id="a"><stop style="stop-color:#5d6c82;stop-opacity:1" offset="0"/><stop style="stop-color:#5d6c82;stop-opacity:0" offset="1"/></linearGradient><linearGradient xlink:href="#a" id="c" x1="87.596" y1="39.518" x2="87.239" y2="154.518" gradientUnits="userSpaceOnUse"/><linearGradient xlink:href="#b" id="d" x1="91.168" y1="22.375" x2="91.168" y2="28.089" gradientUnits="userSpaceOnUse"/></defs><path style="fill:#fff;fill-opacity:1;stroke:#8ca3c3;stroke-width:8.00000095;stroke-opacity:1" d="M32.985 23.732a59.464 59.464 0 0 0-3.738 20.537 59.464 59.464 0 0 0 59.465 59.463 59.464 59.464 0 0 0 59.464-59.463 59.464 59.464 0 0 0-3.705-20.537H32.985z" transform="translate(-25.096 -19.732)"/><path d="M32.985 23.732a59.464 59.464 0 0 0-3.738 20.537 59.464 59.464 0 0 0 59.465 59.463 59.464 59.464 0 0 0 59.464-59.463 59.464 59.464 0 0 0-3.705-20.537H32.985z" style="fill:url(#c);fill-opacity:1;stroke:#fff;stroke-width:3" transform="translate(-25.096 -19.732)"/><g style="font-style:normal;font-variant:normal;font-weight:400;font-stretch:normal;font-size:26.45502663px;line-height:125%;font-family:'Luxi Serif';-inkscape-font-specification:'Luxi Serif, Normal';text-align:start;letter-spacing:0;word-spacing:0;writing-mode:lr-tb;text-anchor:start;fill:#fff;fill-opacity:1;stroke:none;stroke-width:1px;stroke-linecap:butt;stroke-linejoin:miter;stroke-opacity:1"><g style="font-style:normal;font-variant:normal;font-weight:400;font-stretch:normal;font-size:33.08672333px;line-height:125%;font-family:Georgia;-inkscape-font-specification:'Georgia, Normal';text-align:start;letter-spacing:0;word-spacing:0;writing-mode:lr-tb;text-anchor:start;fill:#fff;fill-opacity:1;stroke:none;stroke-width:1px;stroke-linecap:butt;stroke-linejoin:miter;stroke-opacity:1"><path d="m61.948 49.486-.76 7.157H42.771v-.565l14.427-21.083h-5.283q-.921 0-1.551.032-.614.032-1.13.13-1.067.21-2.408 1.76-1.325 1.551-2.003 3.28h-1.131l.694-6.478H61.56v.565L47.133 55.367h5.444q1.374 0 2.924-.194 1.551-.194 2.02-.662 1.05-1.002 1.955-2.456.904-1.454 1.34-2.569h1.132zM83.16 49.89l-.436 6.753H63.692v-1.147q.485-.032 1.293-.129.808-.113 1.05-.226.517-.242.71-.63.21-.388.21-.986V37.047q0-.534-.177-.937-.178-.42-.743-.679-.436-.21-1.18-.372-.726-.161-1.163-.193v-1.147h17.74v5.525H80.22q-.324-1.228-1.406-2.601-1.066-1.39-2.036-1.519-.5-.065-1.195-.097-.695-.032-1.583-.032h-3.603v9.112h2.585q1.244 0 1.81-.227.58-.242 1.017-.791.356-.469.598-1.244.258-.792.34-1.486h1.21v8.966h-1.21q-.066-.776-.356-1.632-.275-.872-.582-1.26-.5-.63-1.147-.824-.63-.194-1.68-.194h-2.585v6.883q0 1.033.145 1.631.146.598.566.905.42.307 1.147.404.727.08 2.068.08h1.405q.873 0 1.47-.064.614-.065 1.26-.226.663-.178.938-.469.743-.775 1.55-2.342.825-1.583 1.05-2.327h1.164zM107.862 56.643h-6.172q-2.051-3.215-3.715-5.557-1.648-2.343-3.587-4.83h-2.343v7.27q0 .565.178 1.001.178.42.76.646.29.113 1.017.21.727.097 1.228.113v1.147h-9.693v-1.147q.388-.032 1.115-.113.743-.08 1.033-.21.485-.21.695-.614.226-.404.226-1.034V36.95q0-.566-.161-1.002-.162-.436-.76-.662-.403-.146-1.05-.259-.646-.13-1.098-.161v-1.147h10.582q1.454 0 2.73.307 1.276.29 2.31.953 1.002.646 1.6 1.696.597 1.034.597 2.504 0 1.325-.403 2.343-.404 1.018-1.196 1.76-.727.695-1.745 1.212-1.018.501-2.245.857 1.696 2.245 2.81 3.78 1.132 1.535 2.763 3.732.711.97 1.277 1.438.581.452 1.147.743.42.21 1.05.323.63.113 1.05.13v1.146zm-8.498-17.092q0-2.084-1.196-3.296-1.195-1.228-3.376-1.228h-2.747v9.839h2.117q2.23 0 3.716-1.422 1.486-1.438 1.486-3.893zM127.249 36.433q1.518 1.583 2.374 3.829.857 2.23.857 4.943 0 2.73-.873 4.96-.872 2.23-2.423 3.797-1.503 1.55-3.49 2.39-1.987.84-4.232.84-2.391 0-4.427-.888-2.02-.905-3.474-2.504-1.454-1.567-2.294-3.797-.824-2.245-.824-4.798 0-2.795.873-4.976.872-2.197 2.407-3.796 1.519-1.584 3.522-2.424 2.02-.84 4.217-.84 2.278 0 4.297.857 2.02.856 3.49 2.407zm-2.408 16.252q.905-1.47 1.309-3.328.42-1.858.42-4.152 0-2.359-.468-4.33-.453-1.97-1.341-3.36-.889-1.373-2.23-2.132-1.34-.776-3.07-.776-1.938 0-3.295.889-1.357.888-2.213 2.375-.808 1.421-1.212 3.328-.388 1.906-.388 4.006 0 2.327.42 4.2.42 1.875 1.325 3.329.872 1.421 2.197 2.23 1.325.79 3.167.79 1.728 0 3.118-.807 1.389-.808 2.261-2.262z" transform="matrix(1.02978 0 0 .97108 -25.59 -17.232)"/></g></g><path d="M25.198 20.354h127.027v5.05H25.198z" style="fill:url(#d);fill-opacity:1" transform="translate(-25.096 -19.732)"/><g style="font-style:normal;font-variant:normal;font-weight:200;font-stretch:normal;font-size:24.15940475px;line-height:125%;font-family:'.HeitiUI K';-inkscape-font-specification:'.HeitiUI K, Ultra-Light';text-align:start;letter-spacing:0;word-spacing:0;writing-mode:lr-tb;text-anchor:start;fill:#fff;fill-opacity:1;stroke:none;stroke-width:1px;stroke-linecap:butt;stroke-linejoin:miter;stroke-opacity:1"><path d="M61.495 63.495h1.16v11.79q0 2.367-.387 3.55-.339 1.112-1.28 1.765h.023q-.99.628-2.295.628-.99 0-2.053-.435t-2.078-1.208q.193-.266.314-.46.145-.217.338-.482 1.087.749 1.885 1.11.797.363 1.522.363.435 0 .797-.12.387-.121.797-.411.338-.266.604-.58.266-.338.387-.749.145-.386.193-1.16.073-.797.073-1.908V63.495zM67.327 63.495h1.16v10.509q0 1.715.072 2.537.049.459.218.894.169.435.41.845.58.822 1.57 1.329.991.507 2.127.507 1.135 0 2.005-.459.87-.459 1.498-1.16.241-.362.435-.748.193-.411.314-.822.217-.87.217-2.923v-10.51h1.136v10.51q0 2.658-.508 4.035-.265.676-.749 1.256-.459.556-1.087 1.039h.024q-1.377.894-3.068.894-1.377 0-2.512-.46-1.136-.458-1.909-1.256-.338-.338-.628-.845-.266-.532-.435-.99-.145-.532-.217-1.45-.073-.943-.073-2.223v-10.51zM83.085 80.793V63.495h3.407q3.648 0 5.435.555 1.837.604 2.996 1.691 1.232 1.16 1.885 2.851.676 1.667.676 3.987 0 1.135-.29 2.198-.266 1.039-.749 2.054-.555 1.014-1.256 1.763-.677.725-1.57 1.208-1.764.99-5.146.99h-5.388zm1.063-1.16h2.416q1.643 0 2.827-.072 1.184-.073 1.908-.242.75-.169 1.426-.483.676-.338 1.232-.822 2.343-2.077 2.343-5.677 0-1.86-.676-3.382-.677-1.547-1.957-2.561-.628-.508-1.401-.846-.75-.338-1.595-.507-1.691-.338-4.928-.338h-1.595v14.93zM116.598 67.119q-1.45-1.353-3.19-2.078-1.715-.75-3.55-.75-1.016 0-2.054.243-1.04.241-2.054.797-1.981 1.087-3.092 2.85-1.088 1.764-1.088 3.866 0 3.262 2.416 5.653 2.44 2.416 6.137 2.416 2.778 0 4.808-1.546 2.029-1.619 2.488-4.59h-5.75v-1.184h7.055q-.145 3.938-2.44 6.16-2.344 2.272-6.21 2.272-4.396 0-7.102-2.706-2.634-2.658-2.634-6.378 0-3.745 2.634-6.403 1.328-1.377 3.068-2.029 1.764-.652 3.89-.652 4.227 0 7.658 3.14l-.99.919zM122.157 63.495h9.615v1.232h-8.456v6.112h8.36v1.184h-8.36v7.538h8.36v1.232h-9.52V63.495z" transform="matrix(.95206 0 0 1.05035 -25.096 -19.732)"/></g></svg>